# xmcd
#
# Track frame offsets: 
#        150
#        14725
#        25050
#        41625
#        52575
#        68700
#        77300
#        90350
#        102702
#        116200
#        128525
#        140575
#        148125
#        162875
#        176400
#        193475
#
# Disc length: 2760 seconds
#
# Revision: 2
# Processed by: cddbd v1.5.2PL0 Copyright (c) Steve Scherf et al.
# Submitted via: ExactAudioCopy v0.99pb5
#
DISCID=d80ac610
DTITLE=J. B. Lenoir - Alabama Blues!
DYEAR=1965
DGENRE=Blues
TTITLE0=Alabama blues
TTITLE1=The mojo boogie
TTITLE2=God´s word
TTITLE3=The whale has swallowed me
TTITLE4=Move this rope
TTITLE5=I feel so good
TTITLE6=Alabama march
TTITLE7=Talk to your daughter
TTITLE8=Mississippi road
TTITLE9=Good advice
TTITLE10=Vietnam
TTITLE11=I want to go
TTITLE12=Down in MIssissippi
TTITLE13=If I get lucky
TTITLE14=Born dead
TTITLE15=Feelin´ good
EXTD=YEAR: 1965
EXTT0=
EXTT1=
EXTT2=
EXTT3=
EXTT4=
EXTT5=
EXTT6=
EXTT7=
EXTT8=
EXTT9=
EXTT10=
EXTT11=
EXTT12=
EXTT13=
EXTT14=
EXTT15=
PLAYORDER=
